<svg width="42" height="43" viewBox="0 0 42 43" fill="none" xmlns="http://www.w3.org/2000/svg">
<path d="M14.8964 14.2934C14.8126 12.5505 15.4225 10.8454 16.5926 9.55083C17.7628 8.25623 19.398 7.47749 21.1409 7.38487C22.8838 7.47749 24.519 8.25623 25.6892 9.55083C26.8594 10.8454 27.4692 12.5505 27.3854 14.2934C27.4663 16.034 26.855 17.736 25.6851 19.0276C24.5151 20.3192 22.8815 21.0956 21.1409 21.1871C19.4003 21.0956 17.7667 20.3192 16.5967 19.0276C15.4268 17.736 14.8155 16.034 14.8964 14.2934ZM41.9163 21.2759C41.9226 25.3991 40.6906 29.4292 38.3798 32.8443C38.3193 32.9487 38.25 33.0477 38.1726 33.1402C36.2634 35.8886 33.7171 38.1342 30.7512 39.685C27.7853 41.2358 24.488 42.0459 21.1409 42.0459C17.7938 42.0459 14.4965 41.2358 11.5306 39.685C8.56471 38.1342 6.0184 35.8886 4.1092 33.1402C4.03185 33.0477 3.96254 32.9487 3.90204 32.8443C2.09308 30.1505 0.940713 27.0704 0.537372 23.851C0.134031 20.6316 0.490937 17.3625 1.57947 14.3059C2.66799 11.2492 4.45785 8.49018 6.80549 6.24994C9.15314 4.00969 11.9932 2.35063 15.098 1.40579C18.2028 0.460951 21.4858 0.25664 24.6838 0.809239C27.8818 1.36184 30.9058 2.65597 33.5132 4.58785C36.1206 6.51972 38.2389 9.03558 39.6982 11.9336C41.1575 14.8317 41.9172 18.0313 41.9163 21.2759ZM2.58508 21.2759C2.57952 24.4277 3.37918 27.5288 4.90826 30.2851C8.11927 26.069 14.275 23.4357 21.1409 23.4357C28.0069 23.4357 34.1625 26.069 37.3735 30.2851C38.7486 27.8083 39.5382 25.0496 39.6818 22.2205C39.8253 19.3914 39.3191 16.567 38.2018 13.9637C37.0845 11.3605 35.3859 9.04759 33.2361 7.20225C31.0864 5.3569 28.5425 4.02813 25.7996 3.31779C23.0566 2.60744 20.1874 2.53438 17.4118 3.10421C14.6362 3.67404 12.028 4.87162 9.78707 6.60516C7.54612 8.33871 5.73192 10.5622 4.48354 13.1052C3.23517 15.6482 2.58575 18.4431 2.58508 21.2759Z" fill="#919090"/>
</svg>
